<svg width="703" height="597" xmlns="http://www.w3.org/2000/svg" xmlns:xlink="http://www.w3.org/1999/xlink" overflow="hidden"><defs><clipPath id="clip0"><rect x="241" y="205" width="703" height="597"/></clipPath></defs><g clip-path="url(#clip0)" transform="translate(-241 -205)"><path d="M471.5 321C471.5 258.316 528.584 207.5 599 207.5 669.416 207.5 726.5 258.316 726.5 321 726.5 383.684 669.416 434.5 599 434.5 528.584 434.5 471.5 383.684 471.5 321Z" stroke="#000000" stroke-width="4.58333" stroke-miterlimit="8" fill="#FFFFFF" fill-rule="evenodd"/><text font-family="Times New Roman,Times New Roman_MSFontService,sans-serif" font-weight="400" font-size="83" transform="matrix(1 0 0 1 576.73 351)">η</text><rect x="255.5" y="634.5" width="141" height="137" stroke="#000000" stroke-width="4.58333" stroke-miterlimit="8" fill="#FFFFFF"/><text font-family="Times New Roman,Times New Roman_MSFontService,sans-serif" font-weight="400" font-size="83" transform="matrix(1 0 0 1 291.339 733)">x<tspan font-size="55" x="41.25" y="20">1</tspan></text><rect x="527.5" y="634.5" width="142" height="137" stroke="#000000" stroke-width="4.58333" stroke-miterlimit="8" fill="#FFFFFF"/><text font-family="Times New Roman,Times New Roman_MSFontService,sans-serif" font-weight="400" font-size="83" transform="matrix(1 0 0 1 563.839 733)">x<tspan font-size="55" x="41.25" y="20">2</tspan></text><rect x="800.5" y="634.5" width="141" height="137" stroke="#000000" stroke-width="4.58333" stroke-miterlimit="8" fill="#FFFFFF"/><text font-family="Times New Roman,Times New Roman_MSFontService,sans-serif" font-weight="400" font-size="83" transform="matrix(1 0 0 1 836.339 733)">x<tspan font-size="55" x="41.25" y="20">3</tspan></text><path d="M0.901693-0.707024 169.105 213.809 167.301 215.223-0.901693 0.707024ZM176.196 202.425 182.344 232.55 154.555 219.393Z" transform="matrix(-1 0 0 1 508.344 401)"/><path d="M1.14583-2.07503e-06 1.14615 176.369-1.14551 176.369-1.14583 2.07503e-06ZM13.7503 171.785 0.000360892 199.285-13.7497 171.786Z" transform="matrix(-1 0 0 1 598 434)"/><path d="M688.901 400.293 857.104 614.809 855.301 616.223 687.098 401.707ZM864.195 603.425 870.343 633.55 842.554 620.393Z"/></g></svg>