<?xml version="1.0" encoding="UTF-8"?>
<svg xmlns="http://www.w3.org/2000/svg" xmlns:xlink="http://www.w3.org/1999/xlink" width="504pt" height="432pt" viewBox="0 0 504 432" version="1.1">
<defs>
<clipPath id="clip1">
  <path d="M 8.21875 5.480469 L 498.519531 5.480469 L 498.519531 423.78125 L 8.21875 423.78125 Z M 8.21875 5.480469 "/>
</clipPath>
</defs>
<g id="surface24">
<rect x="0" y="0" width="504" height="432" style="fill:rgb(100%,100%,100%);fill-opacity:1;stroke:none;"/>
<rect x="0" y="0" width="504" height="432" style="fill:rgb(100%,100%,100%);fill-opacity:1;stroke:none;"/>
<path style="fill:none;stroke-width:1.066978;stroke-linecap:round;stroke-linejoin:round;stroke:rgb(100%,100%,100%);stroke-opacity:1;stroke-miterlimit:10;" d="M 0 432 L 504 432 L 504 0 L 0 0 Z M 0 432 "/>
<g clip-path="url(#clip1)" clip-rule="nonzero">
<path style=" stroke:none;fill-rule:nonzero;fill:rgb(100%,100%,100%);fill-opacity:1;" d="M 8.21875 423.78125 L 498.519531 423.78125 L 498.519531 5.480469 L 8.21875 5.480469 Z M 8.21875 423.78125 "/>
</g>
<path style=" stroke:none;fill-rule:nonzero;fill:rgb(66.27451%,66.27451%,66.27451%);fill-opacity:1;" d="M 30.503906 404.765625 L 70.621094 404.765625 L 75.078125 404.761719 L 79.535156 404.761719 L 88.449219 404.746094 L 92.90625 404.734375 L 97.363281 404.710938 L 101.820313 404.675781 L 106.28125 404.617188 L 110.738281 404.527344 L 115.195313 404.390625 L 119.652344 404.183594 L 124.109375 403.875 L 128.566406 403.421875 L 133.023438 402.769531 L 137.480469 401.839844 L 141.9375 400.542969 L 146.394531 398.753906 L 150.851563 396.335938 L 155.308594 393.109375 L 159.765625 388.878906 L 164.222656 383.421875 L 168.679688 376.5 L 173.140625 367.871094 L 177.597656 357.296875 L 182.054688 344.566406 L 186.511719 329.511719 L 190.96875 312.039063 L 195.425781 292.140625 L 199.882813 269.925781 L 204.339844 245.640625 L 208.796875 219.667969 L 213.253906 192.53125 L 217.710938 164.898438 L 222.167969 137.542969 L 226.625 111.320313 L 231.082031 87.136719 L 235.539063 65.871094 L 239.996094 48.351563 L 244.457031 35.289063 L 248.914063 27.222656 L 253.371094 24.492188 L 257.828125 27.222656 L 262.285156 35.289063 L 266.742188 48.351563 L 271.199219 65.871094 L 275.65625 87.136719 L 280.113281 111.320313 L 284.570313 137.542969 L 289.027344 164.898438 L 293.484375 192.53125 L 297.941406 219.667969 L 302.398438 245.640625 L 306.855469 269.925781 L 311.316406 292.140625 L 315.773438 312.039063 L 320.230469 329.511719 L 324.6875 344.566406 L 329.144531 357.296875 L 333.601563 367.871094 L 338.058594 376.5 L 342.515625 383.421875 L 346.972656 388.878906 L 351.429688 393.109375 L 355.886719 396.335938 L 360.34375 398.753906 L 364.800781 400.542969 L 369.257813 401.839844 L 373.714844 402.769531 L 378.175781 403.421875 L 382.632813 403.875 L 387.089844 404.183594 L 391.546875 404.390625 L 396.003906 404.527344 L 400.460938 404.617188 L 404.917969 404.675781 L 409.375 404.710938 L 413.832031 404.734375 L 418.289063 404.746094 L 427.203125 404.761719 L 431.660156 404.761719 L 436.117188 404.765625 L 476.234375 404.765625 Z M 30.503906 404.765625 "/>
<path style=" stroke:none;fill-rule:nonzero;fill:rgb(27.45098%,50.980392%,70.588235%);fill-opacity:0.6;" d="M 30.503906 402.65625 L 34.960938 402.242188 L 39.421875 401.761719 L 43.878906 401.199219 L 48.335938 400.550781 L 52.792969 399.800781 L 57.25 398.9375 L 61.707031 397.949219 L 66.164063 396.820313 L 70.621094 395.542969 L 75.078125 394.09375 L 79.535156 392.460938 L 83.992188 390.632813 L 88.449219 388.589844 L 92.90625 386.320313 L 97.363281 383.804688 L 101.820313 381.03125 L 106.28125 377.988281 L 110.738281 374.667969 L 115.195313 371.050781 L 119.652344 367.140625 L 124.109375 362.921875 L 128.566406 358.402344 L 133.023438 353.578125 L 137.480469 348.453125 L 141.9375 343.039063 L 146.394531 337.347656 L 150.851563 331.394531 L 155.308594 325.203125 L 159.765625 318.800781 L 164.222656 312.21875 L 168.679688 305.488281 L 173.140625 298.648438 L 177.597656 291.75 L 182.054688 284.832031 L 186.511719 277.949219 L 190.96875 271.15625 L 195.425781 264.5 L 199.882813 258.042969 L 204.339844 251.84375 L 208.796875 245.953125 L 213.253906 240.425781 L 217.710938 235.320313 L 222.167969 230.683594 L 226.625 226.558594 L 231.082031 222.996094 L 235.539063 220.027344 L 239.996094 217.683594 L 244.457031 215.996094 L 248.914063 214.972656 L 253.371094 214.628906 L 257.828125 214.972656 L 262.285156 215.996094 L 266.742188 217.683594 L 271.199219 220.027344 L 275.65625 222.996094 L 280.113281 226.558594 L 284.570313 230.683594 L 289.027344 235.320313 L 293.484375 240.425781 L 297.941406 245.953125 L 302.398438 251.84375 L 306.855469 258.042969 L 311.316406 264.5 L 315.773438 271.15625 L 320.230469 277.949219 L 324.6875 284.832031 L 329.144531 291.75 L 333.601563 298.648438 L 338.058594 305.488281 L 342.515625 312.21875 L 346.972656 318.800781 L 351.429688 325.203125 L 355.886719 331.394531 L 360.34375 337.347656 L 364.800781 343.039063 L 369.257813 348.453125 L 373.714844 353.578125 L 378.175781 358.402344 L 382.632813 362.921875 L 387.089844 367.140625 L 391.546875 371.050781 L 396.003906 374.667969 L 400.460938 377.988281 L 404.917969 381.03125 L 409.375 383.804688 L 413.832031 386.320313 L 418.289063 388.589844 L 422.746094 390.632813 L 427.203125 392.460938 L 431.660156 394.09375 L 436.117188 395.542969 L 440.574219 396.820313 L 445.03125 397.949219 L 449.492188 398.9375 L 453.949219 399.800781 L 458.40625 400.550781 L 462.863281 401.199219 L 467.320313 401.761719 L 471.777344 402.242188 L 476.234375 402.65625 L 476.234375 404.765625 L 30.503906 404.765625 Z M 30.503906 402.65625 "/>
<path style=" stroke:none;fill-rule:nonzero;fill:rgb(0%,61.960784%,45.098039%);fill-opacity:0.6;" d="M 30.503906 404.765625 L 146.394531 404.765625 L 159.765625 404.753906 L 164.222656 404.742188 L 168.679688 404.726563 L 173.140625 404.699219 L 177.597656 404.660156 L 182.054688 404.59375 L 186.511719 404.488281 L 190.96875 404.332031 L 195.425781 404.09375 L 199.882813 403.742188 L 204.339844 403.230469 L 208.796875 402.496094 L 213.253906 401.453125 L 217.710938 400.007813 L 222.167969 398.027344 L 226.625 395.359375 L 231.082031 391.820313 L 235.539063 387.207031 L 239.996094 381.289063 L 244.457031 373.824219 L 248.914063 364.574219 L 253.371094 353.300781 L 257.828125 339.8125 L 262.285156 323.957031 L 266.742188 305.671875 L 271.199219 284.984375 L 275.65625 262.046875 L 280.113281 237.148438 L 284.570313 210.722656 L 289.027344 183.339844 L 293.484375 155.707031 L 297.941406 128.632813 L 302.398438 102.988281 L 306.855469 79.679688 L 311.316406 59.578125 L 315.773438 43.472656 L 320.230469 32.023438 L 324.6875 25.707031 L 329.144531 24.796875 L 333.601563 29.328125 L 338.058594 39.113281 L 342.515625 53.730469 L 346.972656 72.582031 L 351.429688 94.914063 L 355.886719 119.878906 L 360.34375 146.578125 L 364.800781 174.121094 L 369.257813 201.667969 L 373.714844 228.484375 L 378.175781 253.945313 L 382.632813 277.574219 L 387.089844 299.035156 L 391.546875 318.132813 L 396.003906 334.796875 L 400.460938 349.0625 L 404.917969 361.050781 L 409.375 370.953125 L 413.832031 378.984375 L 418.289063 385.390625 L 422.746094 390.414063 L 427.203125 394.285156 L 431.660156 397.222656 L 436.117188 399.414063 L 440.574219 401.023438 L 445.03125 402.1875 L 449.492188 403.011719 L 453.949219 403.59375 L 458.40625 403.992188 L 462.863281 404.261719 L 467.320313 404.445313 L 471.777344 404.5625 L 476.234375 404.640625 L 476.234375 404.765625 Z M 30.503906 404.765625 "/>
<path style=" stroke:none;fill-rule:nonzero;fill:rgb(54.509804%,0%,0%);fill-opacity:0.6;" d="M 30.503906 404.765625 L 70.621094 404.765625 L 75.078125 404.75 L 79.535156 404.605469 L 83.992188 403.699219 L 88.449219 399.570313 L 92.90625 385.976563 L 97.363281 353.660156 L 101.820313 298.195313 L 106.28125 229.519531 L 110.738281 168.339844 L 115.195313 129.5 L 119.652344 112.65625 L 124.109375 108.929688 L 128.566406 110.667969 L 133.023438 114.324219 L 137.480469 118.828125 L 141.9375 123.9375 L 146.394531 129.59375 L 150.851563 135.757813 L 155.308594 142.390625 L 159.765625 149.449219 L 164.222656 156.886719 L 168.679688 164.660156 L 173.140625 172.730469 L 177.597656 181.042969 L 182.054688 189.550781 L 186.511719 198.214844 L 190.96875 206.988281 L 195.425781 215.820313 L 199.882813 224.675781 L 204.339844 233.511719 L 208.796875 242.289063 L 213.253906 250.96875 L 217.710938 259.523438 L 222.167969 267.914063 L 226.625 276.121094 L 231.082031 284.109375 L 235.539063 291.867188 L 239.996094 299.367188 L 244.457031 306.59375 L 248.914063 313.535156 L 253.371094 320.183594 L 257.828125 326.527344 L 262.285156 332.558594 L 266.742188 338.28125 L 271.199219 343.691406 L 275.65625 348.789063 L 280.113281 353.582031 L 284.570313 358.070313 L 289.027344 362.261719 L 293.484375 366.167969 L 297.941406 369.796875 L 302.398438 373.15625 L 306.855469 376.257813 L 311.316406 379.113281 L 315.773438 381.738281 L 320.230469 384.140625 L 324.6875 386.335938 L 329.144531 388.335938 L 333.601563 390.152344 L 338.058594 391.796875 L 342.515625 393.28125 L 346.972656 394.621094 L 351.429688 395.828125 L 355.886719 396.90625 L 360.34375 397.871094 L 364.800781 398.730469 L 369.257813 399.496094 L 373.714844 400.175781 L 378.175781 400.777344 L 382.632813 401.304688 L 387.089844 401.773438 L 391.546875 402.183594 L 396.003906 402.539063 L 400.460938 402.855469 L 404.917969 403.125 L 409.375 403.363281 L 413.832031 403.570313 L 418.289063 403.746094 L 422.746094 403.902344 L 427.203125 404.035156 L 431.660156 404.148438 L 436.117188 404.242188 L 440.574219 404.328125 L 445.03125 404.398438 L 449.492188 404.457031 L 453.949219 404.507813 L 458.40625 404.550781 L 462.863281 404.585938 L 467.320313 404.617188 L 471.777344 404.644531 L 476.234375 404.664063 L 476.234375 404.765625 Z M 30.503906 404.765625 "/>
<path style="fill:none;stroke-width:1.066978;stroke-linecap:butt;stroke-linejoin:round;stroke:rgb(0%,0%,0%);stroke-opacity:1;stroke-miterlimit:10;" d="M 8.21875 423.78125 L 8.21875 5.480469 "/>
<path style="fill:none;stroke-width:1.066978;stroke-linecap:butt;stroke-linejoin:round;stroke:rgb(0%,0%,0%);stroke-opacity:1;stroke-miterlimit:10;" d="M 8.21875 423.78125 L 498.519531 423.78125 "/>
</g>
</svg>
